# xmcd
#
# Track frame offsets: 
#        183
#        52383
#        97213
#        148378
#        243720
#        289500
#
# Disc length: 4282 seconds
#
# Revision: 1
# Processed by: cddbd v1.5.2PL0 Copyright (c) Steve Scherf et al.
# Submitted via: ExactAudioCopyFreeDBPlugin 1.0
#
DISCID=6710b806
DTITLE=Marco Enrico Bossi - Concerto per organo (Sacchetti)
DYEAR=1975
DGENRE=Organ and Orchestra
TTITLE0=Concerto per Organo e Orchestra in Si Bemolle Minore, Op.100: 
TTITLE0=I. Allegro moderato
TTITLE1=Concerto per Organo e Orchestra in Si Bemolle Minore, Op.100: 
TTITLE1=II. Adagio molto
TTITLE2=Concerto per Organo e Orchestra in Si Bemolle Minore, Op.100: 
TTITLE2=III. Allegro
TTITLE3=Fantasia Sinfonica per Organo e Orchestra, Op.147
TTITLE4=Sinfonia-Ouverture in Mi Maggiore per Orchestra, Op.1
TTITLE5=Sicilliana e Giga per Flauto e Piccola Orchestra, Op.73
EXTD=YEAR: 1975
EXTT0=
EXTT1=
EXTT2=
EXTT3=
EXTT4=
EXTT5=
PLAYORDER=
